<?xml version="1.0" encoding="utf-8"?>
<!-- Generator: Adobe Illustrator 27.3.0, SVG Export Plug-In . SVG Version: 6.00 Build 0)  -->
<svg version="1.1" id="Ebene_1" xmlns="http://www.w3.org/2000/svg" xmlns:xlink="http://www.w3.org/1999/xlink" x="0px" y="0px"
	 viewBox="0 0 841.89 595.28" style="enable-background:new 0 0 841.89 595.28;" xml:space="preserve">
<style type="text/css">
	.st0{fill:#20346B;}
	.st1{fill:#F49423;}
	.st2{fill:url(#SVGID_1_);}
</style>
<path class="st0" d="M787.17,365.28c0-1.61-0.61-3.06-1.65-4.11c-0.85-0.81-1.69-1.25-4.67-2.42c-2.22-0.85-2.66-1.25-2.66-2.34
	c0-1.33,0.93-2.06,2.58-2.06c1.13,0,2.54,0.36,4.07,1.05c0.12,0.04,0.24,0.08,0.32,0.08c0.16,0,0.28-0.12,0.4-0.36l1.01-2.3
	c0.08-0.16,0.12-0.32,0.12-0.44c0-0.77-3.63-1.85-6.16-1.85c-4.19,0-7.17,2.7-7.17,6.57c0,1.57,0.56,2.94,1.61,3.95
	c0.72,0.69,1.61,1.21,4.19,2.18c2.62,1.01,3.1,1.41,3.1,2.54c0,1.25-0.93,2.09-2.34,2.09c-1.53,0-3.34-0.56-5.48-1.73
	c-0.16-0.08-0.28-0.12-0.36-0.12c-0.16,0-0.28,0.12-0.4,0.4l-0.93,2.46c-0.08,0.24-0.12,0.32-0.12,0.48c0,0.28,0.16,0.4,0.89,0.77
	c2.1,1.09,4.59,1.69,6.85,1.69c2.13,0,3.75-0.6,4.96-1.85C786.48,368.74,787.17,367.01,787.17,365.28"/>
<path class="st0" d="M770.08,361.53c0-7.33-2.66-11-7.98-11c-5.32,0-8.82,4.31-8.82,10.8c0,3.67,1.09,6.73,3.02,8.5
	c1.41,1.29,3.43,1.97,6,1.97c1.97,0,3.79-0.36,5.56-1.13c1.33-0.56,1.65-0.81,1.65-1.25c0-0.16,0-0.2-0.12-0.44l-1.01-2.42
	c-0.12-0.24-0.24-0.36-0.44-0.36c-0.12,0-0.32,0.04-0.52,0.16c-1.53,0.81-3.1,1.25-4.59,1.25c-2.98,0-4.39-1.61-4.47-5.08h10.84
	C769.92,362.54,770.08,362.33,770.08,361.53z M758.44,358.79c0.36-3.3,1.29-4.59,3.34-4.59s2.86,1.25,2.94,4.59H758.44z"/>
<path class="st0" d="M751.91,352.82c0-1.01-3.26-2.29-5.72-2.29c-5.76,0-9.31,4.19-9.31,11.04c0,6.49,3.18,10.23,8.66,10.23
	c2.74,0,5.84-1.17,5.84-2.18c0-0.16,0-0.16-0.12-0.48l-0.97-2.46c-0.08-0.16-0.2-0.28-0.32-0.28c-0.12,0-0.28,0.08-0.44,0.2
	c-1.17,0.77-2.18,1.13-3.3,1.13c-2.78,0-4.03-1.97-4.03-6.37c0-4.67,1.25-6.77,3.99-6.77c1.21,0,1.93,0.28,3.43,1.37
	c0.16,0.12,0.28,0.16,0.4,0.16c0.12,0,0.28-0.12,0.36-0.28l1.41-2.58C751.87,353.11,751.91,352.95,751.91,352.82"/>
<path class="st0" d="M732.53,370.43V351.9c0-0.6-0.08-0.69-0.69-0.69h-7.49c-0.61,0-0.69,0.08-0.69,0.69v2.38
	c0,0.61,0.08,0.69,0.69,0.69h3.06v15.47c0,0.6,0.08,0.68,0.68,0.68h3.75C732.45,371.12,732.53,371.04,732.53,370.43"/>
<path class="st0" d="M733.09,345.29c0-1.77-1.45-3.26-3.22-3.26c-1.81,0-3.3,1.45-3.3,3.22c0,1.85,1.45,3.3,3.26,3.3
	C731.64,348.55,733.09,347.1,733.09,345.29"/>
<path class="st0" d="M722.82,351.78c0-0.24-0.16-0.36-0.6-0.4l-3.34-0.4c-0.16-0.04-0.32-0.04-0.32-0.04
	c-0.24,0-0.36,0.12-0.48,0.56l-2.82,9.23c-0.44,1.45-0.97,3.67-1.41,5.8c-0.48-2.42-0.89-4.27-1.33-5.8l-2.58-9.23
	c-0.12-0.44-0.24-0.56-0.48-0.56l-0.32,0.04l-3.95,0.4c-0.48,0.04-0.64,0.16-0.64,0.4c0,0.12,0.04,0.24,0.12,0.44l6.57,19.14
	c0.16,0.48,0.24,0.52,0.77,0.52h3.3c0.52,0,0.6-0.04,0.76-0.52l6.69-19.14C722.78,352.06,722.82,351.9,722.82,351.78"/>
<path class="st0" d="M704.04,351.41c0-0.44-1.09-0.88-2.3-0.88c-1.37,0-2.66,0.56-3.67,1.57c-0.4,0.4-0.52,0.61-1.37,1.57
	c-0.44-1.94-1.05-3.14-1.53-3.14c-0.16,0-0.16,0-0.48,0.12l-3.26,1.17c-0.24,0.08-0.4,0.24-0.4,0.4c0,0.12,0.04,0.24,0.08,0.36
	c0.97,2.18,1.21,3.3,1.21,5.6v12.25c0,0.6,0.08,0.68,0.68,0.68h3.75c0.6,0,0.69-0.08,0.69-0.68v-13.42
	c1.21-1.33,2.21-1.93,3.06-1.93c0.48,0,1.05,0.12,1.61,0.32c0.12,0.04,0.2,0.08,0.28,0.08c0.12,0,0.24-0.12,0.32-0.36l1.25-3.26
	C704,351.7,704.04,351.53,704.04,351.41"/>
<path class="st0" d="M688.08,361.53c0-7.33-2.66-11-7.98-11c-5.32,0-8.82,4.31-8.82,10.8c0,3.67,1.09,6.73,3.02,8.5
	c1.41,1.29,3.43,1.97,6,1.97c1.97,0,3.79-0.36,5.56-1.13c1.33-0.56,1.65-0.81,1.65-1.25c0-0.16,0-0.2-0.12-0.44l-1.01-2.42
	c-0.12-0.24-0.24-0.36-0.44-0.36c-0.12,0-0.32,0.04-0.52,0.16c-1.53,0.81-3.1,1.25-4.59,1.25c-2.98,0-4.39-1.61-4.47-5.08h10.84
	C687.92,362.54,688.08,362.33,688.08,361.53z M676.44,358.79c0.36-3.3,1.29-4.59,3.34-4.59s2.86,1.25,2.94,4.59H676.44z"/>
<path class="st0" d="M668.7,363.3c0-3.75-1.73-6.16-5.88-8.26c-3.55-1.77-3.67-1.85-4.23-2.22c-1.09-0.72-1.57-1.53-1.57-2.54
	c0-1.81,1.41-2.94,3.67-2.94c1.29,0,2.7,0.36,4.03,1.05c1.45,0.72,1.45,0.72,1.57,0.72c0.12,0,0.28-0.12,0.36-0.28l1.45-3.06
	c0.12-0.24,0.12-0.24,0.12-0.32c0-1.05-4.51-2.54-7.7-2.54c-5.4,0-8.82,3.02-8.82,7.78c0,3.59,1.45,5.4,6.29,7.82
	c3.38,1.69,3.91,2.02,4.59,2.78c0.52,0.56,0.85,1.53,0.85,2.46c0,2.14-1.33,3.34-3.62,3.34c-1.77,0-3.75-0.64-6.17-1.97
	c-0.16-0.08-0.28-0.12-0.36-0.12c-0.16,0-0.28,0.12-0.36,0.36l-1.33,3.47c-0.04,0.16-0.08,0.36-0.08,0.44
	c0,0.93,5.16,2.42,8.42,2.42C665.16,371.68,668.7,368.3,668.7,363.3"/>
<path class="st0" d="M640.9,365.28c0-1.61-0.6-3.06-1.65-4.11c-0.85-0.81-1.69-1.25-4.68-2.42c-2.21-0.85-2.66-1.25-2.66-2.34
	c0-1.33,0.93-2.06,2.58-2.06c1.13,0,2.54,0.36,4.07,1.05c0.12,0.04,0.24,0.08,0.32,0.08c0.16,0,0.28-0.12,0.4-0.36l1.01-2.3
	c0.08-0.16,0.12-0.32,0.12-0.44c0-0.77-3.63-1.85-6.17-1.85c-4.19,0-7.17,2.7-7.17,6.57c0,1.57,0.56,2.94,1.61,3.95
	c0.73,0.69,1.61,1.21,4.19,2.18c2.62,1.01,3.1,1.41,3.1,2.54c0,1.25-0.93,2.09-2.34,2.09c-1.53,0-3.34-0.56-5.48-1.73
	c-0.16-0.08-0.28-0.12-0.36-0.12c-0.16,0-0.28,0.12-0.4,0.4l-0.93,2.46c-0.08,0.24-0.12,0.32-0.12,0.48c0,0.28,0.16,0.4,0.89,0.77
	c2.1,1.09,4.59,1.69,6.85,1.69c2.13,0,3.75-0.6,4.96-1.85C640.22,368.74,640.9,367.01,640.9,365.28"/>
<path class="st0" d="M622.04,370.43V351.9c0-0.6-0.08-0.69-0.69-0.69h-7.49c-0.61,0-0.69,0.08-0.69,0.69v2.38
	c0,0.61,0.08,0.69,0.69,0.69h3.06v15.47c0,0.6,0.08,0.68,0.68,0.68h3.75C621.96,371.12,622.04,371.04,622.04,370.43"/>
<path class="st0" d="M622.61,345.29c0-1.77-1.45-3.26-3.22-3.26c-1.81,0-3.3,1.45-3.3,3.22c0,1.85,1.45,3.3,3.27,3.3
	C621.16,348.55,622.61,347.1,622.61,345.29"/>
<path class="st0" d="M611.81,365.28c0-1.61-0.61-3.06-1.65-4.11c-0.85-0.81-1.69-1.25-4.67-2.42c-2.22-0.85-2.66-1.25-2.66-2.34
	c0-1.33,0.93-2.06,2.58-2.06c1.13,0,2.54,0.36,4.07,1.05c0.12,0.04,0.24,0.08,0.32,0.08c0.16,0,0.28-0.12,0.4-0.36l1.01-2.3
	c0.08-0.16,0.12-0.32,0.12-0.44c0-0.77-3.62-1.85-6.16-1.85c-4.19,0-7.17,2.7-7.17,6.57c0,1.57,0.56,2.94,1.61,3.95
	c0.72,0.69,1.61,1.21,4.19,2.18c2.62,1.01,3.1,1.41,3.1,2.54c0,1.25-0.93,2.09-2.34,2.09c-1.53,0-3.34-0.56-5.48-1.73
	c-0.16-0.08-0.28-0.12-0.36-0.12c-0.16,0-0.28,0.12-0.4,0.4l-0.93,2.46c-0.08,0.24-0.12,0.32-0.12,0.48c0,0.28,0.16,0.4,0.89,0.77
	c2.1,1.09,4.59,1.69,6.85,1.69c2.14,0,3.75-0.6,4.96-1.85C611.12,368.74,611.81,367.01,611.81,365.28"/>
<path class="st0" d="M596.22,351.78c0-0.24-0.16-0.36-0.64-0.4l-3.54-0.4c-0.16-0.04-0.28-0.04-0.32-0.04
	c-0.24,0-0.32,0.12-0.44,0.6l-2.26,9.87l-0.4,1.73c-0.12,0.52-0.24,1.17-0.36,1.85l-0.61,3.38c-0.48-2.5-0.81-4.15-1.57-6.97
	l-2.66-9.91c-0.12-0.44-0.24-0.56-0.48-0.56h-0.28l-4.11,0.44c-0.48,0.04-0.64,0.16-0.64,0.4c0,0.12,0.04,0.16,0.12,0.44l6.33,18.37
	c0.16,0.48,0.24,0.52,0.77,0.52h1.69l-0.48,1.69c-0.68,2.34-1.45,3.06-3.14,3.06c-0.93,0-1.85-0.28-3.1-0.89
	c-0.12-0.08-0.24-0.12-0.32-0.12c-0.12,0-0.28,0.12-0.36,0.28l-1.25,2.58c-0.16,0.32-0.16,0.32-0.16,0.44c0,0.8,3.26,1.89,5.52,1.89
	c2.14,0,3.67-0.64,4.88-2.09c1.17-1.37,1.69-2.66,3.06-8.38c0.24-0.93,0.44-1.85,0.69-2.66l4.03-14.75
	C596.22,351.9,596.22,351.9,596.22,351.78"/>
<path class="st0" d="M578.53,370.68c0-0.04,0-0.08-0.04-0.16l-0.04-0.16l-0.8-3.3c-0.04-0.16-0.16-0.24-0.32-0.24
	c-0.04,0-0.16,0-0.28,0.04c-0.52,0.16-0.88,0.24-1.33,0.24c-0.56,0-0.85-0.24-1.01-0.8c-0.08-0.32-0.08-0.4-0.08-2.66v-20.99
	c0-0.48-0.12-0.69-0.4-0.69c-0.08,0-0.08,0-0.48,0.08l-3.63,0.72c-0.4,0.08-0.6,0.32-0.6,0.77v20.47c0,3.51,0.04,3.99,0.36,4.92
	c0.64,1.89,2.26,2.9,4.59,2.9C576.39,371.8,578.53,371.2,578.53,370.68"/>
<path class="st0" d="M565.03,369.55c-0.69-1.41-0.93-2.58-0.93-4.35v-8.22c0-1.53-0.16-2.5-0.56-3.34c-0.93-2.05-3.1-3.1-6.29-3.1
	c-3.22,0-6.89,1.01-6.89,1.85c0,0.12,0.04,0.32,0.08,0.44l0.85,2.42c0.08,0.28,0.2,0.4,0.4,0.4c0.12,0,0.28-0.04,0.44-0.12
	c1.77-0.69,3.3-1.05,4.51-1.05c2.01,0,2.66,0.73,2.66,3.02v1.25c-2.21,0.04-3.46,0.16-4.51,0.36c-4.07,0.8-6,2.9-6,6.49
	c0,3.71,2.34,6.08,6.04,6.08c2.1,0,3.55-0.64,5.16-2.3c0.44,1.61,0.85,2.38,1.21,2.38c0.12,0,0.36-0.04,0.48-0.12l3.14-1.25
	c0.2-0.08,0.32-0.24,0.32-0.4C565.15,369.87,565.11,369.71,565.03,369.55z M559.31,366.53c-0.97,1.05-1.97,1.57-3.06,1.57
	c-1.45,0-2.58-1.21-2.58-2.78c0-2.34,1.61-3.22,5.64-3.22V366.53z"/>
<path class="st0" d="M533.92,370.43v-14.14c1.41-1.21,2.34-1.65,3.5-1.65c1.61,0,2.3,1.01,2.3,3.38v12.41c0,0.6,0.08,0.68,0.69,0.68
	h3.75c0.6,0,0.68-0.08,0.68-0.68v-13.54c0-4.39-1.61-6.37-5.2-6.37c-2.3,0-4.03,0.72-6.04,2.58c-0.44-1.77-0.97-2.78-1.45-2.78
	c-0.08,0-0.28,0.04-0.4,0.08l-3.59,1.33c-0.2,0.08-0.32,0.24-0.32,0.36s0.04,0.24,0.12,0.4c0.56,1.21,0.85,2.66,0.85,4.39v13.54
	c0,0.6,0.08,0.68,0.68,0.68h3.75C533.84,371.12,533.92,371.04,533.92,370.43"/>
<path class="st0" d="M525.54,370.15l-7.94-25.99c-0.2-0.64-0.24-0.69-0.88-0.69h-4.19c-0.64,0-0.69,0.04-0.89,0.69l-7.94,25.99
	c-0.08,0.32-0.12,0.36-0.12,0.53c0,0.32,0.2,0.44,0.81,0.44h3.99c0.69,0,0.73-0.04,0.89-0.68l1.73-6.61h6.81l1.73,6.61
	c0.16,0.64,0.24,0.68,0.93,0.68h4.39c0.6,0,0.8-0.12,0.8-0.44C525.66,370.56,525.62,370.43,525.54,370.15z M511.6,360.04l1.61-6.89
	c0.52-2.18,0.69-3.1,1.05-5.44c0.52,3.06,0.64,3.79,1.01,5.44l1.49,6.89H511.6z"/>
<path class="st0" d="M493.26,369.55c-0.69-1.41-0.93-2.58-0.93-4.35v-8.22c0-1.53-0.16-2.5-0.56-3.34c-0.93-2.05-3.1-3.1-6.29-3.1
	c-3.22,0-6.89,1.01-6.89,1.85c0,0.12,0.04,0.32,0.08,0.44l0.85,2.42c0.08,0.28,0.2,0.4,0.4,0.4c0.12,0,0.28-0.04,0.44-0.12
	c1.77-0.69,3.3-1.05,4.51-1.05c2.02,0,2.66,0.73,2.66,3.02v1.25c-2.22,0.04-3.46,0.16-4.51,0.36c-4.07,0.8-6,2.9-6,6.49
	c0,3.71,2.34,6.08,6.05,6.08c2.1,0,3.54-0.64,5.16-2.3c0.44,1.61,0.85,2.38,1.21,2.38c0.12,0,0.36-0.04,0.48-0.12l3.14-1.25
	c0.2-0.08,0.32-0.24,0.32-0.4C493.39,369.87,493.35,369.71,493.26,369.55z M487.54,366.53c-0.97,1.05-1.97,1.57-3.06,1.57
	c-1.45,0-2.58-1.21-2.58-2.78c0-2.34,1.61-3.22,5.64-3.22V366.53z"/>
<path class="st0" d="M475.54,370.23c0-0.12,0-0.16-0.08-0.44l-0.64-2.82c-0.08-0.24-0.2-0.4-0.4-0.4c-0.12,0-0.24,0.04-0.36,0.08
	c-1.49,0.6-1.85,0.68-2.66,0.68c-1.21,0-1.49-0.44-1.49-2.58v-9.79h3.99c0.48,0,0.61-0.12,0.73-0.61l0.52-2.38
	c0.04-0.12,0.04-0.24,0.04-0.36c0-0.32-0.16-0.4-0.68-0.4h-4.59v-5.68c0-0.48-0.12-0.64-0.4-0.64h-0.36l-3.71,0.53
	c-0.56,0.08-0.64,0.16-0.64,0.72v5.08H462c-0.6,0-0.68,0.08-0.68,0.69v2.38c0,0.61,0.08,0.69,0.68,0.69h2.78v10.52
	c0,2.26,0.2,3.26,0.89,4.27c0.93,1.37,2.46,2.05,4.55,2.05c1.33,0,2.7-0.24,4.07-0.69C475.29,370.8,475.54,370.64,475.54,370.23"/>
<path class="st0" d="M458.94,369.55c-0.69-1.41-0.93-2.58-0.93-4.35v-8.22c0-1.53-0.16-2.5-0.56-3.34c-0.93-2.05-3.1-3.1-6.29-3.1
	c-3.22,0-6.89,1.01-6.89,1.85c0,0.12,0.04,0.32,0.08,0.44l0.85,2.42c0.08,0.28,0.2,0.4,0.4,0.4c0.12,0,0.28-0.04,0.44-0.12
	c1.77-0.69,3.3-1.05,4.51-1.05c2.01,0,2.66,0.73,2.66,3.02v1.25c-2.21,0.04-3.46,0.16-4.51,0.36c-4.07,0.8-6,2.9-6,6.49
	c0,3.71,2.34,6.08,6.04,6.08c2.1,0,3.55-0.64,5.16-2.3c0.44,1.61,0.85,2.38,1.21,2.38c0.12,0,0.36-0.04,0.48-0.12l3.14-1.25
	c0.2-0.08,0.32-0.24,0.32-0.4C459.06,369.87,459.02,369.71,458.94,369.55z M453.21,366.53c-0.97,1.05-1.97,1.57-3.06,1.57
	c-1.45,0-2.58-1.21-2.58-2.78c0-2.34,1.61-3.22,5.64-3.22V366.53z"/>
<path class="st0" d="M432.26,343.72c-1.09-0.2-1.45-0.24-4.19-0.24h-6.33c-0.72,0-0.85,0.12-0.85,0.85v25.95
	c0,0.73,0.12,0.85,0.85,0.85h6.33c3.83,0,4.96-0.2,6.57-1.01c3.46-1.77,5.12-5.92,5.12-12.77
	C439.76,349.04,437.38,344.69,432.26,343.72z M432.02,365.68c-0.85,0.77-2.01,1.05-4.19,1.05h-1.41v-18.86h1.41
	c1.93,0,2.66,0.16,3.59,0.81c1.81,1.21,2.54,3.71,2.54,8.9C433.95,362.09,433.39,364.47,432.02,365.68z"/>
<path class="st1" d="M788.14,250.31c0-0.89-0.56-1.22-2.23-1.22h-37.17c-2.12,0-2.34,0.22-2.34,2.34v71.67
	c0,2.12,0.22,2.34,2.34,2.34h36.28c2.12,0,2.34-0.22,2.34-2.34v-7.46c0-2-0.34-2.34-2.34-2.34h-23.37v-21.7h18.59
	c2.01,0,2.34-0.33,2.34-2.34v-7.46c0-2-0.33-2.34-2.34-2.34h-18.59v-18.25h21.59c1.56,0,2-0.45,2.45-1.89l2.23-7.57
	C788.03,251.2,788.14,250.65,788.14,250.31"/>
<path class="st1" d="M732.04,303.84c0-10.35-4.78-17.03-16.25-22.81c-9.79-4.9-10.13-5.12-11.69-6.12c-3-2-4.34-4.23-4.34-7.01
	c0-5.01,3.9-8.12,10.13-8.12c3.56,0,7.46,1,11.13,2.89c4.01,2,4.01,2,4.34,2c0.33,0,0.78-0.33,1-0.78l4.01-8.46
	c0.34-0.67,0.34-0.67,0.34-0.89c0-2.89-12.46-7.01-21.26-7.01c-14.91,0-24.37,8.35-24.37,21.48c0,9.9,4.01,14.91,17.36,21.59
	c9.35,4.67,10.79,5.57,12.69,7.68c1.45,1.56,2.34,4.23,2.34,6.79c0,5.9-3.67,9.24-10.02,9.24c-4.9,0-10.35-1.78-17.03-5.45
	c-0.45-0.22-0.78-0.33-1-0.33c-0.45,0-0.78,0.33-1,1l-3.67,9.57c-0.11,0.45-0.22,1-0.22,1.22c0,2.56,14.24,6.68,23.26,6.68
	C722.25,326.99,732.04,317.64,732.04,303.84"/>
<path class="st1" d="M667.82,323.1v-71.67c0-2.12-0.22-2.34-2.34-2.34h-8.35c-2,0-2.34,0.34-2.34,2.34v35.39
	c0,4.23,0,5.56,0.22,14.02c-1.89-5.79-4.45-12.24-7.12-17.14l-17.58-32.72c-1-1.78-1.11-1.89-3.23-1.89h-8.68
	c-2.11,0-2.34,0.22-2.34,2.34v71.67c0,2.12,0.22,2.34,2.34,2.34h8.35c2,0,2.34-0.34,2.34-2.34v-38.06c0-5.79,0-5.79-0.33-13.58
	c1.89,5.34,3.45,8.9,7.12,15.8l19.14,36.06c1,1.89,1.34,2.12,3.34,2.12h7.12C667.6,325.43,667.82,325.21,667.82,323.1"/>
<path class="st1" d="M605.71,322.76l-21.92-71.78c-0.56-1.78-0.67-1.89-2.45-1.89h-11.57c-1.78,0-1.89,0.11-2.45,1.89l-21.92,71.78
	c-0.22,0.89-0.33,1-0.33,1.45c0,0.89,0.56,1.22,2.23,1.22h11.02c1.89,0,2-0.11,2.45-1.89l4.79-18.25h18.81l4.78,18.25
	c0.45,1.78,0.67,1.89,2.56,1.89h12.13c1.67,0,2.23-0.34,2.23-1.22C606.04,323.87,605.93,323.54,605.71,322.76z M567.2,294.83
	l4.45-19.03c1.45-6.01,1.89-8.57,2.89-15.03c1.45,8.46,1.78,10.46,2.78,15.03l4.12,19.03H567.2z"/>
<path class="st1" d="M540.15,322.76l-21.92-71.78c-0.56-1.78-0.67-1.89-2.45-1.89H504.2c-1.78,0-1.89,0.11-2.45,1.89l-21.92,71.78
	c-0.22,0.89-0.34,1-0.34,1.45c0,0.89,0.56,1.22,2.23,1.22h11.02c1.89,0,2-0.11,2.45-1.89l4.78-18.25h18.81l4.79,18.25
	c0.45,1.78,0.67,1.89,2.56,1.89h12.13c1.67,0,2.23-0.34,2.23-1.22C540.48,323.87,540.37,323.54,540.15,322.76z M501.64,294.83
	l4.45-19.03c1.45-6.01,1.89-8.57,2.89-15.03c1.45,8.46,1.78,10.46,2.78,15.03l4.12,19.03H501.64z"/>
<path class="st1" d="M453.56,249.76c-3-0.56-4.01-0.67-11.57-0.67h-17.47c-2,0-2.34,0.34-2.34,2.34v71.67c0,2,0.33,2.34,2.34,2.34
	h17.47c10.57,0,13.69-0.56,18.14-2.78c9.57-4.9,14.13-16.36,14.13-35.28C474.26,264.45,467.69,252.43,453.56,249.76z M452.89,310.41
	c-2.34,2.12-5.57,2.89-11.58,2.89h-3.9v-52.08h3.9c5.34,0,7.35,0.45,9.91,2.23c5.01,3.34,7.01,10.24,7.01,24.6
	C458.23,300.5,456.67,307.07,452.89,310.41z"/>
<linearGradient id="SVGID_1_" gradientUnits="userSpaceOnUse" x1="242.6852" y1="437.9844" x2="242.6852" y2="176.5281">
	<stop  offset="0.0305" style="stop-color:#20346B"/>
	<stop  offset="0.9235" style="stop-color:#F49423"/>
</linearGradient>
<path class="st2" d="M222.8,381.61l-25.84,25.84l33.35,33.35c6.83,6.83,17.91,6.83,24.75,0l33.35-33.35l-25.84-25.84
	C251.59,370.63,233.78,370.63,222.8,381.61 M222.8,322.56l-55.37,55.37l21.09,21.09l34.28-34.28c10.98-10.98,28.79-10.98,39.77,0
	l34.28,34.28l21.09-21.09l-55.37-55.37C251.59,311.58,233.78,311.58,222.8,322.56 M222.8,256.95l-88.17,88.17L159,369.5l63.8-63.8
	c10.98-10.98,28.79-10.98,39.77,0l63.8,63.8l24.37-24.37l-88.17-88.17C251.59,245.97,233.78,245.97,222.8,256.95 M375.5,295.61
	L255.06,175.17c-3.42-3.42-7.9-5.13-12.38-5.13s-8.96,1.71-12.37,5.13L109.87,295.61c-6.83,6.83-6.83,17.91,0,24.75l16.33,16.33
	l96.61-96.61c10.98-10.98,28.79-10.98,39.77,0l96.61,96.61l16.33-16.33C382.34,313.53,382.34,302.45,375.5,295.61"/>
</svg>
